<?xml version="1.0" encoding="UTF-8"?>
<svg xmlns="http://www.w3.org/2000/svg" xmlns:xlink="http://www.w3.org/1999/xlink" width="24px" height="18px" viewBox="0 0 24 18" version="1.1">
<defs>
<filter id="alpha" filterUnits="objectBoundingBox" x="0%" y="0%" width="100%" height="100%">
  <feColorMatrix type="matrix" in="SourceGraphic" values="0 0 0 0 1 0 0 0 0 1 0 0 0 0 1 0 0 0 1 0"/>
</filter>
<mask id="mask0">
  <g filter="url(#alpha)">
<rect x="0" y="0" width="24" height="18" style="fill:rgb(0%,0%,0%);fill-opacity:0.8;stroke:none;"/>
  </g>
</mask>
<linearGradient id="linear0" gradientUnits="userSpaceOnUse" x1="95.266701" y1="91.9263" x2="26.700001" y2="30.68" gradientTransform="matrix(0.2,0,0,0.2,-0.800467,-3.8)">
<stop offset="0" style="stop-color:rgb(66.27451%,78.431373%,100%);stop-opacity:1;"/>
<stop offset="1" style="stop-color:rgb(78.039216%,90.196078%,100%);stop-opacity:1;"/>
</linearGradient>
<clipPath id="clip1">
  <rect x="0" y="0" width="24" height="18"/>
</clipPath>
<g id="surface6" clip-path="url(#clip1)">
<path style=" stroke:none;fill-rule:evenodd;fill:url(#linear0);" d="M 1.007812 18 C 0.679688 18 0.398438 17.871094 0.210938 17.640625 C 0.0195312 17.402344 -0.046875 17.078125 0.03125 16.746094 L 3.628906 1.164062 C 3.78125 0.511719 4.410156 0 5.070312 0 L 22.992188 0 C 23.320312 0 23.601562 0.128906 23.789062 0.359375 C 23.980469 0.597656 24.046875 0.921875 23.96875 1.253906 L 20.371094 16.835938 C 20.222656 17.488281 19.589844 18 18.929688 18 Z M 1.007812 18 "/>
</g>
<linearGradient id="linear1" gradientUnits="userSpaceOnUse" x1="26.5854" y1="30.7778" x2="93.585403" y2="90.277802" gradientTransform="matrix(0.2,0,0,0.2,-0.800467,-3.8)">
<stop offset="0" style="stop-color:rgb(17.647059%,27.45098%,39.215686%);stop-opacity:1;"/>
<stop offset="0.1689" style="stop-color:rgb(16.078431%,25.098039%,35.686275%);stop-opacity:1;"/>
<stop offset="0.4445" style="stop-color:rgb(11.764706%,18.431373%,26.27451%);stop-opacity:1;"/>
<stop offset="0.7902" style="stop-color:rgb(4.705882%,7.45098%,10.588235%);stop-opacity:1;"/>
<stop offset="1" style="stop-color:rgb(0%,0%,0%);stop-opacity:1;"/>
</linearGradient>
</defs>
<g id="surface1">
<use xlink:href="#surface6" mask="url(#mask0)"/>
<path style=" stroke:none;fill-rule:evenodd;fill:url(#linear1);" d="M 22.898438 0.199219 L 5.125 0.199219 C 4.574219 0.199219 4.019531 0.652344 3.894531 1.210938 L 0.324219 16.789062 C 0.199219 17.347656 0.542969 17.800781 1.097656 17.800781 L 18.871094 17.800781 C 19.425781 17.800781 19.976562 17.347656 20.105469 16.789062 L 23.671875 1.207031 C 23.796875 0.652344 23.453125 0.199219 22.898438 0.199219 Z M 22.898438 0.199219 "/>
<path style=" stroke:none;fill-rule:evenodd;fill:rgb(17.254902%,33.333333%,56.862745%);fill-opacity:1;" d="M 12.03125 13.710938 L 16.355469 13.710938 C 16.859375 13.710938 17.265625 14.136719 17.265625 14.660156 C 17.265625 15.183594 16.859375 15.609375 16.355469 15.609375 L 12.03125 15.609375 C 11.53125 15.609375 11.121094 15.183594 11.121094 14.660156 C 11.121094 14.136719 11.53125 13.710938 12.03125 13.710938 Z M 12.03125 13.710938 "/>
<path style=" stroke:none;fill-rule:evenodd;fill:rgb(17.254902%,33.333333%,56.862745%);fill-opacity:1;" d="M 14.835938 9.492188 C 14.761719 9.640625 14.609375 9.804688 14.335938 9.996094 L 6.3125 15.757812 C 5.875 16.078125 5.246094 15.960938 4.90625 15.496094 C 4.570312 15.03125 4.652344 14.398438 5.089844 14.078125 L 12.324219 8.839844 L 12.324219 8.734375 L 7.777344 3.898438 C 7.40625 3.503906 7.445312 2.863281 7.863281 2.472656 C 8.285156 2.082031 8.921875 2.082031 9.292969 2.476562 L 14.746094 8.277344 C 15.058594 8.609375 15.082031 9.105469 14.835938 9.492188 Z M 14.835938 9.492188 "/>
<path style=" stroke:none;fill-rule:evenodd;fill:rgb(100%,100%,100%);fill-opacity:1;" d="M 14.636719 9.289062 C 14.5625 9.441406 14.40625 9.605469 14.132812 9.796875 L 6.113281 15.558594 C 5.675781 15.878906 5.046875 15.761719 4.707031 15.296875 C 4.371094 14.832031 4.453125 14.199219 4.890625 13.878906 L 12.125 8.640625 L 12.125 8.53125 L 7.578125 3.699219 C 7.207031 3.304688 7.246094 2.664062 7.664062 2.273438 C 8.082031 1.878906 8.722656 1.882812 9.09375 2.277344 L 14.546875 8.078125 C 14.859375 8.40625 14.878906 8.90625 14.636719 9.289062 Z M 14.636719 9.289062 "/>
<path style=" stroke:none;fill-rule:evenodd;fill:rgb(100%,100%,100%);fill-opacity:1;" d="M 11.910156 13.601562 L 16.230469 13.601562 C 16.734375 13.601562 17.140625 14.003906 17.140625 14.5 C 17.140625 14.996094 16.734375 15.398438 16.230469 15.398438 L 11.910156 15.398438 C 11.40625 15.398438 11 14.996094 11 14.5 C 11 14.003906 11.40625 13.601562 11.910156 13.601562 Z M 11.910156 13.601562 "/>
</g>
</svg>
